<svg width="640" height="162" viewBox="0 0 640 162" fill="none" xmlns="http://www.w3.org/2000/svg">
<path d="M0.100001 160V-2.38419e-06H53.2V14.3H16V72.4H51.2V86.7H16V145.7H53.2V160H0.100001ZM69.8031 160V-2.38419e-06H85.7031V160H69.8031ZM134.045 161.5C123.512 161.5 115.945 159.433 111.345 155.3C106.812 151.167 104.312 144.5 103.845 135.3C103.712 130.5 103.579 125.133 103.445 119.2C103.379 113.2 103.345 107.033 103.345 100.7C103.345 94.3 103.379 88.0333 103.445 81.9C103.512 75.7667 103.645 70.1 103.845 64.9C104.312 55.4333 106.879 48.6667 111.545 44.6C116.279 40.5333 123.712 38.5 133.845 38.5C144.045 38.5 151.379 40.5667 155.845 44.7C160.312 48.8333 162.745 55.3333 163.145 64.2C163.212 65.7333 163.245 68.6667 163.245 73C163.312 77.2667 163.312 82.1333 163.245 87.6C163.245 93 163.145 98.1667 162.945 103.1H119.445C119.445 108.633 119.479 114.233 119.545 119.9C119.679 125.5 119.779 131.2 119.845 137C119.979 141.533 121.145 144.667 123.345 146.4C125.545 148.133 129.012 149 133.745 149C138.479 149 141.845 148.133 143.845 146.4C145.912 144.667 147.045 141.533 147.245 137C147.379 135 147.412 132.267 147.345 128.8C147.345 125.333 147.245 121.733 147.045 118H162.945C163.079 120.267 163.179 123.2 163.245 126.8C163.312 130.333 163.279 133.167 163.145 135.3C162.679 144.633 160.245 151.333 155.845 155.4C151.512 159.467 144.245 161.5 134.045 161.5ZM119.445 90.9H147.445C147.512 87.1667 147.545 83.4 147.545 79.6C147.612 75.7333 147.612 72.3 147.545 69.3C147.479 66.2333 147.379 64.1 147.245 62.9C146.979 58.3667 145.779 55.2333 143.645 53.5C141.512 51.7 138.245 50.8 133.845 50.8C128.779 50.8 125.212 51.8 123.145 53.8C121.079 55.8 119.979 58.8333 119.845 62.9C119.779 67.4333 119.679 72.0667 119.545 76.8C119.479 81.4667 119.445 86.1667 119.445 90.9ZM190.722 160L174.022 40H190.622L197.522 100.5L202.222 147.8H208.622L213.622 100.5L220.622 40H237.122L220.122 160H190.722ZM280.334 161.5C269.801 161.5 262.234 159.433 257.634 155.3C253.101 151.167 250.601 144.5 250.134 135.3C250.001 130.5 249.868 125.133 249.734 119.2C249.668 113.2 249.634 107.033 249.634 100.7C249.634 94.3 249.668 88.0333 249.734 81.9C249.801 75.7667 249.934 70.1 250.134 64.9C250.601 55.4333 253.168 48.6667 257.834 44.6C262.568 40.5333 270.001 38.5 280.134 38.5C290.334 38.5 297.668 40.5667 302.134 44.7C306.601 48.8333 309.034 55.3333 309.434 64.2C309.501 65.7333 309.534 68.6667 309.534 73C309.601 77.2667 309.601 82.1333 309.534 87.6C309.534 93 309.434 98.1667 309.234 103.1H265.734C265.734 108.633 265.768 114.233 265.834 119.9C265.968 125.5 266.068 131.2 266.134 137C266.268 141.533 267.434 144.667 269.634 146.4C271.834 148.133 275.301 149 280.034 149C284.768 149 288.134 148.133 290.134 146.4C292.201 144.667 293.334 141.533 293.534 137C293.668 135 293.701 132.267 293.634 128.8C293.634 125.333 293.534 121.733 293.334 118H309.234C309.368 120.267 309.468 123.2 309.534 126.8C309.601 130.333 309.568 133.167 309.434 135.3C308.968 144.633 306.534 151.333 302.134 155.4C297.801 159.467 290.534 161.5 280.334 161.5ZM265.734 90.9H293.734C293.801 87.1667 293.834 83.4 293.834 79.6C293.901 75.7333 293.901 72.3 293.834 69.3C293.768 66.2333 293.668 64.1 293.534 62.9C293.268 58.3667 292.068 55.2333 289.934 53.5C287.801 51.7 284.534 50.8 280.134 50.8C275.068 50.8 271.501 51.8 269.434 53.8C267.368 55.8 266.268 58.8333 266.134 62.9C266.068 67.4333 265.968 72.0667 265.834 76.8C265.768 81.4667 265.734 86.1667 265.734 90.9ZM328.592 160V40H344.592V51H348.092C350.359 46.8667 353.059 43.7667 356.192 41.7C359.326 39.5667 363.359 38.5 368.292 38.5C375.692 38.5 381.159 40.5 384.692 44.5C388.292 48.5 390.126 54.9333 390.192 63.8V160H374.292V62.6C374.226 58.3333 373.259 55.2667 371.392 53.4C369.526 51.5333 366.559 50.6 362.492 50.6C358.626 50.6 354.992 51.6333 351.592 53.7C348.259 55.7667 345.926 58.6333 344.592 62.3V160H328.592ZM418.695 160V16.4H409.395L408.595 10.2L421.595 -2.38419e-06H435.095V160H418.695ZM465.18 160V16.4H455.88L455.08 10.2L468.08 -2.38419e-06H481.58V160H465.18ZM539.003 160L556.203 -2.38419e-06H588.903L606.003 160H589.803L585.703 114.8H559.303L555.303 160H539.003ZM560.703 100.5H584.403L581.303 66.6L576.903 14.3H568.303L563.803 66.7L560.703 100.5ZM623.538 160V-2.38419e-06H639.438V160H623.538Z" fill="black"/>
</svg>
